<svg width="171" height="167" viewBox="0 0 171 167" fill="none" xmlns="http://www.w3.org/2000/svg">
<g clip-path="url(#clip0_101_620)">
<path d="M30.2813 1.34605e-05H140.719C144.696 -0.00374168 148.636 0.778235 152.311 2.30119C155.987 3.82415 159.327 6.05818 162.139 8.87544C164.952 11.6927 167.182 15.0379 168.703 18.7195C170.223 22.4012 171.004 26.347 171 30.3312V136.669C171.004 140.653 170.223 144.599 168.703 148.281C167.182 151.962 164.952 155.307 162.139 158.125C159.327 160.942 155.987 163.176 152.311 164.699C148.636 166.222 144.696 167.004 140.719 167H30.2813C26.3036 167.004 22.3643 166.222 18.6887 164.699C15.0131 163.176 11.6734 160.942 8.86083 158.125C6.0482 155.307 3.81785 151.962 2.2974 148.281C0.776954 144.599 -0.00373552 140.653 1.34383e-05 136.669V30.3312C-0.00373552 26.347 0.776954 22.4012 2.2974 18.7195C3.81785 15.0379 6.0482 11.6927 8.86083 8.87544C11.6734 6.05818 15.0131 3.82415 18.6887 2.30119C22.3643 0.778235 26.3036 -0.00374168 30.2813 1.34605e-05V1.34605e-05Z" fill="#00005B"/>
<path d="M68.6849 99.9144H42.1799L36.7649 116.757C36.7043 117.063 36.5319 117.335 36.2814 117.52C36.031 117.705 35.7205 117.789 35.4111 117.756H22.0161C21.2324 117.756 21.0186 117.328 21.2324 116.472L44.1749 50.5995C44.3886 49.8858 44.6024 49.2435 44.8874 48.3871C45.1741 46.8575 45.3172 45.3044 45.3149 43.7482C45.2935 43.5694 45.3404 43.3892 45.4461 43.2436C45.5518 43.0981 45.7085 42.9979 45.8849 42.9631H64.3386C64.8374 42.9631 65.1936 43.1772 65.2649 43.5341L91.2711 116.686C91.4849 117.471 91.2711 117.828 90.5586 117.828H75.6674C75.4155 117.852 75.1632 117.787 74.9547 117.643C74.7462 117.499 74.5949 117.287 74.5274 117.043L68.6849 99.9144ZM46.3124 85.7123H64.4099C63.9824 84.2136 63.4124 82.4294 62.7711 80.5738C62.1299 78.7183 61.4886 76.5772 60.8474 74.4362C60.2061 72.2952 59.4936 70.0828 58.7811 67.8704C58.0686 65.658 57.4274 63.5883 56.8574 61.5187C56.2874 59.449 55.7886 57.6648 55.2899 55.952H55.1474C54.507 59.0625 53.6983 62.1359 52.7249 65.1584C51.6561 68.5841 50.5874 72.1524 49.4474 75.7208C48.5211 79.3606 47.3811 82.7148 46.3124 85.7123Z" fill="#9999FF"/>
<path d="M133.522 93.3485H110.936C111.205 95.6007 111.959 97.7677 113.145 99.7002C114.404 101.624 116.218 103.117 118.346 103.982C121.226 105.216 124.334 105.824 127.466 105.766C129.954 105.721 132.433 105.458 134.876 104.981C137.049 104.696 139.178 104.145 141.217 103.34C141.573 103.054 141.787 103.197 141.787 103.911V114.83C141.775 115.12 141.727 115.408 141.645 115.687C141.516 115.887 141.346 116.057 141.146 116.186C138.867 117.188 136.474 117.908 134.021 118.327C130.688 118.969 127.297 119.256 123.903 119.184C118.488 119.184 113.928 118.327 110.223 116.686C106.737 115.17 103.66 112.846 101.246 109.906C98.9901 107.156 97.3173 103.975 96.3297 100.557C94.2419 93.4367 94.3412 85.8522 96.6147 78.7895C97.7509 75.2162 99.5653 71.8963 101.958 69.0122C104.315 66.1603 107.255 63.8482 110.58 62.2323C113.928 60.5908 117.918 60.0199 122.478 60.0199C126.278 59.9316 130.049 60.6871 133.522 62.2323C136.441 63.4998 139.009 65.4592 141.003 67.9417C142.897 70.3792 144.345 73.1338 145.278 76.0776C146.184 78.8904 146.641 81.8288 146.632 84.7844C146.632 86.4972 146.561 87.9959 146.49 89.3519C146.418 90.7079 146.276 91.7071 146.205 92.3494C146.173 92.5966 146.056 92.8249 145.874 92.9945C145.692 93.164 145.456 93.2641 145.207 93.2771C144.78 93.2771 143.996 93.3485 142.856 93.4199C141.484 93.5759 140.104 93.6474 138.723 93.634C137.085 93.634 135.375 93.3485 133.522 93.3485ZM110.936 82.9289H125.97C127.822 82.9289 129.176 82.9289 130.031 82.8575C130.616 82.8086 131.18 82.6122 131.67 82.2865V81.5729C131.673 80.6752 131.528 79.7831 131.242 78.9323C130.618 76.9795 129.378 75.2828 127.707 74.0984C126.036 72.914 124.026 72.3061 121.98 72.3665C120.046 72.2578 118.122 72.7122 116.441 73.6747C114.759 74.6371 113.392 76.0666 112.503 77.7904C111.672 79.393 111.141 81.1346 110.936 82.9289V82.9289Z" fill="#9999FF"/>
</g>
<defs>
<clipPath id="clip0_101_620">
<rect width="171" height="167" fill="white"/>
</clipPath>
</defs>
</svg>
