<svg xmlns="http://www.w3.org/2000/svg" xmlns:xlink="http://www.w3.org/1999/xlink" width="500" zoomAndPan="magnify" viewBox="0 0 375 374.999991" height="500" preserveAspectRatio="xMidYMid meet" version="1.0"><defs><clipPath id="f9270815c1"><path d="M 162.964844 135.550781 L 211.714844 135.550781 L 211.714844 239.800781 L 162.964844 239.800781 Z M 162.964844 135.550781 " clip-rule="nonzero"/></clipPath></defs><g clip-path="url(#f9270815c1)"><path fill="#bf3f3f" d="M 200.710938 152.800781 L 212.03125 152.800781 L 212.03125 135.734375 L 197.578125 135.734375 L 197.578125 135.800781 C 178.574219 136.496094 174.65625 147.140625 174.328125 158.394531 L 174.285156 158.394531 L 174.285156 170.238281 L 162.964844 170.238281 L 162.964844 187.324219 L 174.285156 187.324219 L 174.285156 239.265625 L 194.597656 239.265625 L 194.597656 187.324219 L 209.160156 187.324219 L 212.03125 170.238281 L 194.597656 170.238281 L 194.597656 159.636719 C 194.597656 155.871094 197.121094 152.800781 200.710938 152.800781 Z M 200.710938 152.800781 " fill-opacity="1" fill-rule="nonzero"/></g></svg>