<svg width="171" height="167" viewBox="0 0 171 167" fill="none" xmlns="http://www.w3.org/2000/svg">
<g clip-path="url(#clip0_100_579)">
<path d="M30.2813 1.34605e-05H140.719C144.696 -0.00374168 148.636 0.778235 152.311 2.30119C155.987 3.82415 159.327 6.05818 162.139 8.87544C164.952 11.6927 167.182 15.0379 168.703 18.7195C170.223 22.4012 171.004 26.347 171 30.3312V136.669C171.004 140.653 170.223 144.599 168.703 148.28C167.182 151.962 164.952 155.307 162.139 158.125C159.327 160.942 155.987 163.176 152.311 164.699C148.636 166.222 144.696 167.004 140.719 167H30.2813C26.3036 167.004 22.3643 166.222 18.6887 164.699C15.0131 163.176 11.6734 160.942 8.86082 158.125C6.0482 155.307 3.81785 151.962 2.2974 148.28C0.776953 144.599 -0.00373552 140.653 1.34383e-05 136.669V30.3312C-0.00373552 26.347 0.776953 22.4012 2.2974 18.7195C3.81785 15.0379 6.0482 11.6927 8.86082 8.87544C11.6734 6.05818 15.0131 3.82415 18.6887 2.30119C22.3643 0.778235 26.3036 -0.00374168 30.2813 1.34605e-05V1.34605e-05Z" fill="#000B1D"/>
<path d="M67.6875 137.026C77.5251 137.026 85.5 129.037 85.5 119.184V101.342H67.6875C57.8499 101.342 49.875 109.33 49.875 119.184C49.875 129.037 57.8499 137.026 67.6875 137.026Z" fill="#0ACF83"/>
<path d="M49.875 83.5001C49.875 73.6463 57.8499 65.6582 67.6875 65.6582H85.5V101.342H67.6875C57.8499 101.342 49.875 93.3539 49.875 83.5001Z" fill="#A259FF"/>
<path d="M49.875 47.8162C49.875 37.9624 57.8499 29.9744 67.6875 29.9744H85.5V65.6581H67.6875C57.8499 65.6581 49.875 57.67 49.875 47.8162Z" fill="#F24E1E"/>
<path d="M85.5 29.9744H103.313C113.15 29.9744 121.125 37.9624 121.125 47.8162C121.125 57.67 113.15 65.6581 103.313 65.6581H85.5V29.9744Z" fill="#FF7262"/>
<path d="M121.125 83.5001C121.125 93.3539 113.15 101.342 103.313 101.342C93.4749 101.342 85.5 93.3539 85.5 83.5001C85.5 73.6463 93.4749 65.6582 103.313 65.6582C113.15 65.6582 121.125 73.6463 121.125 83.5001Z" fill="#1ABCFE"/>
</g>
<defs>
<clipPath id="clip0_100_579">
<rect width="171" height="167" fill="white"/>
</clipPath>
</defs>
</svg>
