<svg xmlns="http://www.w3.org/2000/svg" xmlns:xlink="http://www.w3.org/1999/xlink" width="500" zoomAndPan="magnify" viewBox="0 0 375 374.999991" height="500" preserveAspectRatio="xMidYMid meet" version="1.0"><defs><clipPath id="97279f424e"><path d="M 135.550781 135.550781 L 239.800781 135.550781 L 239.800781 239.800781 L 135.550781 239.800781 Z M 135.550781 135.550781 " clip-rule="nonzero"/></clipPath></defs><g clip-path="url(#97279f424e)"><path fill="#bf3f3f" d="M 224.003906 239.449219 L 150.996094 239.449219 C 142.480469 239.449219 135.550781 232.519531 135.550781 224.003906 L 135.550781 150.996094 C 135.550781 142.480469 142.480469 135.550781 150.996094 135.550781 L 224.003906 135.550781 C 232.519531 135.550781 239.449219 142.480469 239.449219 150.996094 L 239.449219 224.003906 C 239.449219 232.519531 232.519531 239.449219 224.003906 239.449219 Z M 150.996094 141.167969 C 145.574219 141.167969 141.167969 145.574219 141.167969 150.996094 L 141.167969 224.003906 C 141.167969 229.425781 145.574219 233.832031 150.996094 233.832031 L 224.003906 233.832031 C 229.425781 233.832031 233.832031 229.425781 233.832031 224.003906 L 233.832031 150.996094 C 233.832031 145.574219 229.425781 141.167969 224.003906 141.167969 Z M 150.996094 141.167969 " fill-opacity="1" fill-rule="nonzero"/></g><path fill="#bf3f3f" d="M 187.5 216.984375 C 171.242188 216.984375 158.015625 203.757812 158.015625 187.5 C 158.015625 171.242188 171.242188 158.015625 187.5 158.015625 C 203.757812 158.015625 216.984375 171.242188 216.984375 187.5 C 216.984375 203.757812 203.757812 216.984375 187.5 216.984375 Z M 187.5 163.632812 C 174.339844 163.632812 163.632812 174.339844 163.632812 187.5 C 163.632812 200.660156 174.339844 211.367188 187.5 211.367188 C 200.660156 211.367188 211.367188 200.660156 211.367188 187.5 C 211.367188 174.339844 200.660156 163.632812 187.5 163.632812 Z M 187.5 163.632812 " fill-opacity="1" fill-rule="nonzero"/><path fill="#bf3f3f" d="M 218.390625 166.441406 C 212.96875 166.441406 208.558594 162.03125 208.558594 156.609375 C 208.558594 151.191406 212.96875 146.78125 218.390625 146.78125 C 223.808594 146.78125 228.21875 151.191406 228.21875 156.609375 C 228.21875 162.03125 223.808594 166.441406 218.390625 166.441406 Z M 218.390625 152.398438 C 216.066406 152.398438 214.175781 154.289062 214.175781 156.609375 C 214.175781 158.933594 216.066406 160.824219 218.390625 160.824219 C 220.710938 160.824219 222.601562 158.933594 222.601562 156.609375 C 222.601562 154.289062 220.710938 152.398438 218.390625 152.398438 Z M 218.390625 152.398438 " fill-opacity="1" fill-rule="nonzero"/></svg>