<svg width="171" height="167" viewBox="0 0 171 167" fill="none" xmlns="http://www.w3.org/2000/svg">
<g clip-path="url(#clip0_101_607)">
<path d="M30.2813 1.34605e-05H140.719C144.696 -0.00374168 148.636 0.778235 152.311 2.30119C155.987 3.82415 159.327 6.05818 162.139 8.87544C164.952 11.6927 167.182 15.0379 168.703 18.7195C170.223 22.4012 171.004 26.347 171 30.3312V136.669C171.004 140.653 170.223 144.599 168.703 148.281C167.182 151.962 164.952 155.307 162.139 158.125C159.327 160.942 155.987 163.176 152.311 164.699C148.636 166.222 144.696 167.004 140.719 167H30.2813C26.3036 167.004 22.3643 166.222 18.6887 164.699C15.0131 163.176 11.6734 160.942 8.86083 158.125C6.0482 155.307 3.81785 151.962 2.2974 148.281C0.776954 144.599 -0.00373552 140.653 1.34383e-05 136.669V30.3312C-0.00373552 26.347 0.776954 22.4012 2.2974 18.7195C3.81785 15.0379 6.0482 11.6927 8.86083 8.87544C11.6734 6.05818 15.0131 3.82415 18.6887 2.30119C22.3643 0.778235 26.3036 -0.00374168 30.2813 1.34605e-05V1.34605e-05Z" fill="#330000"/>
<path d="M82.8636 100.2H56.3586L50.9436 116.971C50.8831 117.277 50.7106 117.549 50.4601 117.734C50.2097 117.919 49.8992 118.003 49.5898 117.971H36.1948C35.4111 117.971 35.1973 117.542 35.4111 116.686L58.3536 50.5283C58.5673 49.8147 58.7811 49.0296 59.0661 48.1732C59.3528 46.6437 59.4959 45.0906 59.4936 43.5343C59.4722 43.3556 59.5191 43.1754 59.6248 43.0298C59.7305 42.8842 59.8872 42.784 60.0636 42.7493H78.5173C79.0873 42.7493 79.3723 42.9634 79.4436 43.3202L105.45 116.829C105.664 117.614 105.45 117.971 104.737 117.971H89.8461C89.5942 117.995 89.3419 117.93 89.1334 117.786C88.9249 117.642 88.7736 117.43 88.7061 117.186L82.8636 100.2ZM60.4911 85.7125H78.5886C78.1611 84.2138 77.5911 82.4296 76.9498 80.5741C76.3086 78.7185 75.6673 76.5775 75.0261 74.4365C74.3848 72.2954 73.6723 70.083 72.9598 67.8706C72.2473 65.6582 71.6061 63.5886 71.0361 61.5189C70.4661 59.4493 69.9673 57.6651 69.4686 55.9523H69.3261C68.6857 59.0628 67.877 62.1361 66.9036 65.1587C65.8348 68.5843 64.7661 72.1527 63.6261 75.7211C62.6286 79.3608 61.5598 82.7151 60.4911 85.7125V85.7125Z" fill="#FF9A00"/>
<path d="M120.982 54.9531C119.813 54.9787 118.65 54.7711 117.561 54.3422C116.473 53.9134 115.48 53.272 114.641 52.4552C113.009 50.6674 112.139 48.3109 112.219 45.8894C112.177 44.7096 112.383 43.5341 112.825 42.4397C113.267 41.3453 113.935 40.3564 114.784 39.5377C116.496 37.9163 118.769 37.0213 121.125 37.0398C123.904 37.0398 126.041 37.8962 127.609 39.5377C129.187 41.2682 130.031 43.5465 129.96 45.8894C130.003 47.0952 129.805 48.2975 129.377 49.4252C128.949 50.553 128.299 51.5833 127.466 52.4552C126.627 53.3118 125.613 53.978 124.495 54.4089C123.376 54.8398 122.179 55.0254 120.982 54.9531V54.9531ZM113.002 116.9V61.9471C113.002 61.2334 113.287 60.948 113.929 60.948H128.036C128.677 60.948 128.962 61.3048 128.962 61.9471V116.9C128.962 117.685 128.677 118.042 128.036 118.042H114.071C113.921 118.054 113.771 118.033 113.631 117.979C113.49 117.924 113.364 117.839 113.262 117.73C113.159 117.62 113.082 117.488 113.037 117.345C112.992 117.201 112.981 117.049 113.002 116.9V116.9Z" fill="#FF9A00"/>
</g>
<defs>
<clipPath id="clip0_101_607">
<rect width="171" height="167" fill="white"/>
</clipPath>
</defs>
</svg>
