<svg xmlns="http://www.w3.org/2000/svg" xmlns:xlink="http://www.w3.org/1999/xlink" width="500" zoomAndPan="magnify" viewBox="0 0 375 374.999991" height="500" preserveAspectRatio="xMidYMid meet" version="1.0"><defs><clipPath id="c244688e00"><path d="M 135.550781 139.417969 L 239.800781 139.417969 L 239.800781 243.667969 L 135.550781 243.667969 Z M 135.550781 139.417969 " clip-rule="nonzero"/></clipPath></defs><path fill="#bf3f3f" d="M 159.773438 177.097656 L 167.457031 177.097656 C 167.652344 177.097656 167.839844 177.136719 168.019531 177.210938 C 168.203125 177.285156 168.359375 177.394531 168.5 177.53125 C 168.636719 177.667969 168.742188 177.828125 168.820312 178.007812 C 168.894531 178.191406 168.929688 178.378906 168.929688 178.574219 L 168.929688 220.84375 C 168.929688 221.039062 168.894531 221.226562 168.820312 221.40625 C 168.742188 221.585938 168.636719 221.746094 168.5 221.882812 C 168.359375 222.023438 168.203125 222.128906 168.019531 222.203125 C 167.839844 222.277344 167.652344 222.316406 167.457031 222.316406 L 159.773438 222.316406 C 159.578125 222.316406 159.390625 222.277344 159.207031 222.203125 C 159.027344 222.128906 158.867188 222.023438 158.730469 221.882812 C 158.59375 221.746094 158.484375 221.585938 158.410156 221.40625 C 158.335938 221.226562 158.296875 221.039062 158.296875 220.84375 L 158.296875 178.574219 C 158.296875 178.378906 158.335938 178.191406 158.410156 178.007812 C 158.484375 177.828125 158.59375 177.667969 158.730469 177.53125 C 158.867188 177.394531 159.027344 177.285156 159.207031 177.210938 C 159.390625 177.136719 159.578125 177.097656 159.773438 177.097656 Z M 159.773438 177.097656 " fill-opacity="1" fill-rule="nonzero"/><path fill="#bf3f3f" d="M 169.804688 166.671875 C 169.792969 163.046875 167.191406 160.417969 163.613281 160.417969 C 160.035156 160.417969 157.335938 163.117188 157.335938 166.695312 C 157.335938 168.363281 157.945312 169.910156 159.046875 171.058594 C 160.179688 172.238281 161.742188 172.886719 163.441406 172.886719 C 165.324219 172.886719 167.003906 172.222656 168.171875 171.011719 C 169.269531 169.878906 169.847656 168.347656 169.804688 166.695312 C 169.804688 166.6875 169.804688 166.683594 169.804688 166.671875 Z M 169.804688 166.671875 " fill-opacity="1" fill-rule="nonzero"/><path fill="#bf3f3f" d="M 211.898438 180.074219 C 208.070312 176.648438 203.585938 176.136719 201.253906 176.136719 C 197.769531 176.136719 194.449219 177.070312 191.648438 178.832031 C 190.425781 179.601562 189.320312 180.515625 188.332031 181.574219 L 188.140625 178.476562 C 188.128906 178.289062 188.082031 178.113281 188.003906 177.941406 C 187.921875 177.773438 187.8125 177.625 187.675781 177.496094 C 187.539062 177.367188 187.382812 177.269531 187.210938 177.199219 C 187.035156 177.128906 186.855469 177.097656 186.664062 177.097656 L 179.859375 177.097656 C 179.652344 177.097656 179.457031 177.136719 179.269531 177.21875 C 179.082031 177.300781 178.917969 177.417969 178.777344 177.566406 C 178.636719 177.71875 178.535156 177.890625 178.46875 178.082031 C 178.398438 178.277344 178.375 178.476562 178.386719 178.679688 C 178.628906 181.90625 178.734375 185.296875 178.734375 190.011719 L 178.734375 220.84375 C 178.734375 221.039062 178.769531 221.226562 178.84375 221.40625 C 178.921875 221.585938 179.027344 221.746094 179.164062 221.882812 C 179.304688 222.023438 179.460938 222.128906 179.644531 222.203125 C 179.824219 222.277344 180.011719 222.316406 180.207031 222.316406 L 187.894531 222.316406 C 188.089844 222.316406 188.277344 222.277344 188.457031 222.203125 C 188.636719 222.128906 188.796875 222.023438 188.933594 221.882812 C 189.074219 221.746094 189.179688 221.585938 189.253906 221.40625 C 189.328125 221.226562 189.367188 221.039062 189.367188 220.84375 L 189.367188 195.429688 C 189.367188 194.234375 189.523438 193.113281 189.800781 192.351562 C 189.808594 192.328125 189.816406 192.304688 189.824219 192.277344 C 190.863281 188.886719 194.019531 185.460938 198.722656 185.460938 C 201.632812 185.460938 203.722656 186.457031 205.109375 188.503906 C 206.363281 190.355469 207.027344 193.113281 207.027344 196.476562 L 207.027344 220.84375 C 207.027344 221.039062 207.0625 221.226562 207.140625 221.40625 C 207.214844 221.585938 207.320312 221.746094 207.457031 221.882812 C 207.597656 222.023438 207.757812 222.128906 207.9375 222.203125 C 208.117188 222.277344 208.304688 222.316406 208.5 222.316406 L 216.1875 222.316406 C 216.382812 222.316406 216.570312 222.277344 216.75 222.203125 C 216.929688 222.128906 217.089844 222.023438 217.226562 221.882812 C 217.367188 221.746094 217.472656 221.585938 217.546875 221.40625 C 217.621094 221.226562 217.660156 221.039062 217.660156 220.84375 L 217.660156 195.601562 C 217.660156 192.007812 217.117188 188.820312 216.042969 186.128906 C 215.082031 183.710938 213.6875 181.671875 211.898438 180.074219 Z M 211.898438 180.074219 " fill-opacity="1" fill-rule="nonzero"/><g clip-path="url(#c244688e00)"><path fill="#bf3f3f" d="M 225.921875 139.417969 L 149.078125 139.417969 C 141.617188 139.417969 135.550781 145.488281 135.550781 152.945312 L 135.550781 229.789062 C 135.550781 237.25 141.617188 243.316406 149.078125 243.316406 L 225.921875 243.316406 C 233.382812 243.316406 239.449219 237.25 239.449219 229.789062 L 239.449219 152.945312 C 239.449219 145.488281 233.382812 139.417969 225.921875 139.417969 Z M 229.953125 153.597656 L 229.953125 229.136719 C 229.953125 229.441406 229.921875 229.746094 229.859375 230.050781 C 229.800781 230.351562 229.710938 230.644531 229.59375 230.925781 C 229.476562 231.210938 229.332031 231.480469 229.160156 231.738281 C 228.988281 231.992188 228.796875 232.230469 228.578125 232.445312 C 228.359375 232.664062 228.125 232.859375 227.867188 233.027344 C 227.613281 233.199219 227.34375 233.34375 227.058594 233.460938 C 226.777344 233.578125 226.484375 233.667969 226.179688 233.726562 C 225.878906 233.789062 225.574219 233.820312 225.269531 233.820312 L 149.730469 233.820312 C 149.425781 233.820312 149.121094 233.789062 148.820312 233.726562 C 148.515625 233.667969 148.222656 233.578125 147.941406 233.460938 C 147.65625 233.34375 147.386719 233.199219 147.132812 233.027344 C 146.875 232.859375 146.640625 232.664062 146.421875 232.445312 C 146.203125 232.230469 146.011719 231.992188 145.839844 231.738281 C 145.667969 231.480469 145.523438 231.210938 145.40625 230.925781 C 145.289062 230.644531 145.199219 230.351562 145.140625 230.050781 C 145.078125 229.746094 145.046875 229.441406 145.046875 229.136719 L 145.046875 153.597656 C 145.046875 153.292969 145.078125 152.988281 145.140625 152.6875 C 145.199219 152.382812 145.289062 152.089844 145.40625 151.808594 C 145.523438 151.523438 145.667969 151.253906 145.839844 151 C 146.011719 150.742188 146.203125 150.507812 146.421875 150.289062 C 146.640625 150.070312 146.875 149.878906 147.132812 149.707031 C 147.386719 149.535156 147.65625 149.390625 147.941406 149.273438 C 148.222656 149.15625 148.515625 149.066406 148.820312 149.007812 C 149.121094 148.945312 149.425781 148.917969 149.730469 148.914062 L 225.269531 148.914062 C 225.574219 148.917969 225.878906 148.945312 226.179688 149.007812 C 226.484375 149.066406 226.777344 149.15625 227.058594 149.273438 C 227.34375 149.390625 227.613281 149.535156 227.867188 149.707031 C 228.125 149.878906 228.359375 150.070312 228.578125 150.289062 C 228.796875 150.507812 228.988281 150.742188 229.160156 151 C 229.332031 151.253906 229.476562 151.523438 229.59375 151.808594 C 229.710938 152.089844 229.800781 152.382812 229.859375 152.6875 C 229.921875 152.988281 229.953125 153.292969 229.953125 153.597656 Z M 229.953125 153.597656 " fill-opacity="1" fill-rule="nonzero"/></g></svg>