<svg xmlns="http://www.w3.org/2000/svg" xmlns:xlink="http://www.w3.org/1999/xlink" width="500" zoomAndPan="magnify" viewBox="0 0 375 374.999991" height="500" preserveAspectRatio="xMidYMid meet" version="1.0"><defs><clipPath id="e032f85111"><path d="M 131.71875 164.09375 L 180.46875 164.09375 L 180.46875 194.09375 L 131.71875 194.09375 Z M 131.71875 164.09375 " clip-rule="nonzero"/></clipPath><clipPath id="bd059034f5"><path d="M 112.5 100.628906 L 262.5 100.628906 L 262.5 215.378906 L 112.5 215.378906 Z M 112.5 100.628906 " clip-rule="nonzero"/></clipPath></defs><g clip-path="url(#e032f85111)"><path fill="#bf3f3f" d="M 148.28125 164.09375 L 150.664062 173.0625 L 180.664062 171.945312 L 152.390625 182.394531 L 156.542969 194.429688 L 145.117188 185.9375 L 133.316406 192.570312 L 139.449219 180.996094 L 131.714844 174.550781 L 142.359375 173.621094 Z M 148.28125 164.09375 " fill-opacity="1" fill-rule="nonzero"/></g><g clip-path="url(#bd059034f5)"><path fill="#ffffff" d="M 114.070312 170.601562 C 116.652344 161.191406 122.136719 153.933594 131.015625 149.625 C 133.914062 148.21875 137.136719 147.476562 140.207031 146.425781 L 159.875 143.480469 L 162.75 120.746094 C 163.460938 114.039062 164.179688 107.332031 164.898438 100.628906 L 188.339844 100.628906 C 199.445312 115.671875 210.535156 130.730469 221.621094 145.792969 C 227.15625 153.304688 232.683594 160.824219 238.222656 168.339844 C 238.40625 168.589844 238.648438 168.796875 239.148438 169.332031 C 239.453125 166.765625 239.730469 164.601562 239.960938 162.429688 C 240.636719 156.027344 241.289062 149.621094 241.964844 143.214844 C 242.652344 136.71875 243.359375 130.222656 244.050781 123.726562 C 244.734375 117.277344 245.410156 110.824219 246.085938 104.371094 C 246.214844 103.121094 246.347656 101.875 246.476562 100.628906 L 262.496094 100.628906 C 261.828125 106.753906 261.167969 112.886719 260.507812 119.019531 C 259.6875 126.628906 258.875 134.242188 258.039062 141.847656 C 257.351562 148.15625 256.632812 154.460938 255.9375 160.769531 C 255.261719 166.941406 254.597656 173.109375 253.929688 179.28125 C 253.550781 182.730469 253.191406 186.183594 252.792969 189.628906 L 233.207031 189.628906 C 228.414062 183.1875 223.652344 176.722656 218.878906 170.265625 C 205.984375 152.8125 193.082031 135.363281 180.183594 117.914062 C 179.917969 117.554688 179.640625 117.214844 179.367188 116.863281 L 178.972656 116.945312 L 178.828125 118.246094 L 174.511719 160.515625 L 173.699219 160.425781 C 173.699219 160.429688 173.703125 160.429688 173.703125 160.429688 C 171.03125 160.429688 168.65625 160.425781 166.28125 160.429688 C 160.207031 160.4375 154.136719 160.488281 148.066406 160.457031 C 138.632812 160.410156 130.6875 166.804688 128.890625 176.171875 C 127.085938 185.59375 132.066406 195.804688 142.101562 198.660156 C 144.40625 199.3125 146.867188 199.652344 149.265625 199.691406 C 157.4375 199.816406 165.613281 199.722656 173.785156 199.757812 C 175.082031 199.761719 175.652344 199.457031 175.78125 197.980469 C 176.246094 192.832031 176.925781 187.695312 177.472656 182.550781 C 177.855469 178.984375 178.125 175.398438 178.503906 171.828125 C 179.046875 166.730469 179.652344 161.636719 180.210938 156.539062 C 180.578125 153.152344 180.898438 149.761719 181.253906 146.378906 C 181.644531 142.621094 182.058594 138.871094 182.460938 135.117188 C 182.570312 134.109375 182.65625 133.101562 182.777344 131.800781 C 183.289062 132.460938 183.644531 132.917969 183.996094 133.378906 C 187.941406 138.585938 191.867188 143.804688 195.839844 148.988281 C 196.554688 149.921875 196.695312 150.855469 196.558594 151.988281 C 195.953125 157.03125 195.421875 162.085938 194.859375 167.140625 C 194.304688 172.144531 193.730469 177.144531 193.195312 182.148438 C 192.792969 185.90625 192.460938 189.671875 192.066406 193.429688 C 191.746094 196.488281 191.371094 199.539062 191.027344 202.597656 C 190.605469 206.398438 190.160156 210.195312 189.777344 214.003906 C 189.6875 214.929688 189.472656 215.445312 188.386719 215.441406 C 174.28125 215.390625 160.175781 215.566406 146.074219 215.28125 C 136.914062 215.101562 128.867188 211.683594 122.457031 204.992188 C 117.546875 199.871094 114.65625 193.691406 113.464844 186.699219 C 112.542969 181.28125 112.617188 175.878906 114.070312 170.601562 Z M 114.070312 170.601562 " fill-opacity="1" fill-rule="nonzero"/></g></svg>