<svg xmlns="http://www.w3.org/2000/svg" xmlns:xlink="http://www.w3.org/1999/xlink" width="500" zoomAndPan="magnify" viewBox="0 0 375 374.999991" height="500" preserveAspectRatio="xMidYMid meet" version="1.0"><defs><clipPath id="8a6fb92c16"><path d="M 112.5 101.671875 L 262.5 101.671875 L 262.5 216.421875 L 112.5 216.421875 Z M 112.5 101.671875 " clip-rule="nonzero"/></clipPath><clipPath id="047725057a"><path d="M 131.71875 164.09375 L 183.46875 164.09375 L 183.46875 196.34375 L 131.71875 196.34375 Z M 131.71875 164.09375 " clip-rule="nonzero"/></clipPath></defs><g clip-path="url(#8a6fb92c16)"><path fill="#ffffff" d="M 114.070312 171.644531 C 116.652344 162.234375 122.136719 154.976562 131.015625 150.667969 C 133.914062 149.261719 137.136719 148.519531 140.207031 147.46875 L 159.875 144.527344 L 162.75 121.792969 C 163.460938 115.085938 164.179688 108.378906 164.898438 101.671875 L 188.339844 101.671875 C 199.445312 116.714844 210.535156 131.773438 221.621094 146.835938 C 227.15625 154.347656 232.683594 161.871094 238.222656 169.382812 C 238.40625 169.632812 238.648438 169.84375 239.148438 170.378906 C 239.453125 167.808594 239.730469 165.644531 239.960938 163.476562 C 240.636719 157.070312 241.289062 150.664062 241.964844 144.257812 C 242.652344 137.761719 243.359375 131.269531 244.050781 124.769531 C 244.734375 118.320312 245.410156 111.867188 246.085938 105.417969 C 246.214844 104.164062 246.347656 102.917969 246.476562 101.671875 L 262.496094 101.671875 C 261.828125 107.800781 261.167969 113.929688 260.507812 120.0625 C 259.6875 127.675781 258.875 135.285156 258.039062 142.890625 C 257.351562 149.199219 256.632812 155.507812 255.9375 161.816406 C 255.261719 167.984375 254.597656 174.15625 253.929688 180.328125 C 253.550781 183.777344 253.191406 187.230469 252.792969 190.675781 L 233.207031 190.675781 C 228.414062 184.230469 223.652344 177.765625 218.878906 171.308594 C 205.984375 153.859375 193.082031 136.40625 180.183594 118.957031 C 179.917969 118.597656 179.640625 118.257812 179.367188 117.910156 L 178.972656 117.988281 L 178.828125 119.289062 L 174.511719 161.558594 L 173.699219 161.46875 C 173.699219 161.472656 173.703125 161.472656 173.703125 161.472656 C 171.03125 161.472656 168.65625 161.46875 166.28125 161.472656 C 160.207031 161.484375 154.136719 161.535156 148.066406 161.5 C 138.632812 161.453125 130.6875 167.851562 128.890625 177.21875 C 127.085938 186.636719 132.066406 196.851562 142.101562 199.703125 C 144.40625 200.355469 146.867188 200.695312 149.265625 200.738281 C 157.4375 200.859375 165.613281 200.765625 173.785156 200.800781 C 175.082031 200.804688 175.652344 200.5 175.78125 199.027344 C 176.246094 193.875 176.925781 188.742188 177.472656 183.59375 C 177.855469 180.027344 178.125 176.445312 178.503906 172.871094 C 179.046875 167.773438 179.652344 162.679688 180.210938 157.582031 C 180.578125 154.199219 180.898438 150.804688 181.253906 147.421875 C 181.644531 143.664062 182.058594 139.917969 182.460938 136.160156 C 182.570312 135.15625 182.65625 134.144531 182.777344 132.84375 C 183.289062 133.507812 183.644531 133.960938 183.996094 134.425781 C 187.941406 139.628906 191.867188 144.847656 195.839844 150.03125 C 196.554688 150.964844 196.695312 151.898438 196.558594 153.035156 C 195.953125 158.078125 195.421875 163.132812 194.859375 168.1875 C 194.304688 173.191406 193.730469 178.191406 193.195312 183.195312 C 192.792969 186.949219 192.460938 190.714844 192.066406 194.472656 C 191.746094 197.53125 191.371094 200.585938 191.027344 203.644531 C 190.605469 207.441406 190.160156 211.238281 189.777344 215.046875 C 189.6875 215.972656 189.472656 216.488281 188.386719 216.484375 C 174.28125 216.433594 160.175781 216.609375 146.074219 216.328125 C 136.914062 216.144531 128.867188 212.730469 122.457031 206.035156 C 117.546875 200.914062 114.65625 194.734375 113.464844 187.742188 C 112.542969 182.328125 112.617188 176.921875 114.070312 171.644531 Z M 114.070312 171.644531 " fill-opacity="1" fill-rule="nonzero"/></g><g clip-path="url(#047725057a)"><path fill="#ffffff" d="M 149.335938 164.09375 L 151.871094 173.632812 L 183.78125 172.445312 L 153.707031 183.558594 L 158.125 196.363281 L 145.96875 187.328125 L 133.417969 194.382812 L 139.941406 182.074219 L 131.714844 175.21875 L 143.035156 174.226562 Z M 149.335938 164.09375 " fill-opacity="1" fill-rule="nonzero"/></g></svg>