<svg width="171" height="167" viewBox="0 0 171 167" fill="none" xmlns="http://www.w3.org/2000/svg">
<g clip-path="url(#clip0_101_632)">
<path d="M30.2813 1.34605e-05H140.719C144.696 -0.00374168 148.636 0.778235 152.311 2.30119C155.987 3.82415 159.327 6.05818 162.139 8.87544C164.952 11.6927 167.182 15.0379 168.703 18.7195C170.223 22.4012 171.004 26.347 171 30.3312V136.669C171.004 140.653 170.223 144.599 168.703 148.281C167.182 151.962 164.952 155.307 162.139 158.125C159.327 160.942 155.987 163.176 152.311 164.699C148.636 166.222 144.696 167.004 140.719 167H30.2813C26.3036 167.004 22.3643 166.222 18.6887 164.699C15.0131 163.176 11.6734 160.942 8.86083 158.125C6.0482 155.307 3.81785 151.962 2.2974 148.281C0.776954 144.599 -0.00373552 140.653 1.34383e-05 136.669V30.3312C-0.00373552 26.347 0.776954 22.4012 2.2974 18.7195C3.81785 15.0379 6.0482 11.6927 8.86083 8.87544C11.6734 6.05818 15.0131 3.82415 18.6887 2.30119C22.3643 0.778235 26.3036 -0.00374168 30.2813 1.34605e-05V1.34605e-05Z" fill="#00005B"/>
<path d="M40.6123 117.114V43.6769C40.6123 43.1773 40.8261 42.8918 41.3248 42.8918C42.5361 42.8918 43.6761 42.8918 45.3148 42.8205C46.9536 42.7491 48.8061 42.7491 50.7298 42.6777C52.6536 42.6064 54.7198 42.6064 56.9286 42.535C59.1373 42.4636 61.2748 42.4636 63.4123 42.4636C69.2548 42.4636 74.0998 43.1773 78.0898 44.676C81.6665 45.8927 84.928 47.8917 87.6373 50.5282C89.9332 52.8353 91.7071 55.61 92.8386 58.664C93.9171 61.6382 94.4716 64.7775 94.4773 67.9418C94.4773 74.0794 93.0523 79.1465 90.2023 83.1431C87.3391 87.1342 83.3415 90.1684 78.7311 91.8499C73.8861 93.6341 68.5423 94.2764 62.6998 94.2764C60.9898 94.2764 59.8498 94.2764 59.1373 94.2051C58.4248 94.1337 57.4273 94.1337 56.0736 94.1337V117.043C56.0895 117.16 56.0817 117.28 56.0506 117.394C56.0195 117.508 55.9659 117.615 55.8928 117.708C55.8197 117.802 55.7287 117.879 55.6251 117.936C55.5215 117.994 55.4075 118.03 55.2898 118.042H41.4673C40.8973 118.042 40.6123 117.756 40.6123 117.114ZM56.1448 56.6658V80.6452C57.1423 80.7166 58.0686 80.788 58.9236 80.788H62.6998C65.4813 80.7913 68.2461 80.3579 70.8936 79.5034C73.1649 78.8343 75.1942 77.5205 76.7361 75.7209C78.2323 73.9367 78.9448 71.5102 78.9448 68.37C79.0118 66.1399 78.4434 63.9367 77.3061 62.0183C76.118 60.1653 74.3708 58.7402 72.3186 57.9504C69.6437 56.901 66.7817 56.4151 63.9111 56.523C62.0586 56.523 60.4198 56.523 59.0661 56.5944C58.0921 56.5306 57.1145 56.5545 56.1448 56.6658V56.6658Z" fill="#9999FF"/>
<path d="M104.453 60.805H116.921C117.259 60.8132 117.585 60.928 117.854 61.133C118.123 61.3381 118.32 61.6229 118.418 61.9469C118.635 62.5211 118.779 63.1206 118.845 63.7311C118.988 64.4448 119.13 65.2298 119.201 65.9435C119.273 66.6572 119.344 67.5849 119.344 68.5127C121.483 66.0111 124.068 63.9298 126.968 62.3751C130.279 60.5323 134.009 59.5738 137.798 59.5918C137.915 59.5758 138.034 59.5837 138.148 59.6148C138.262 59.6459 138.369 59.6996 138.462 59.7728C138.555 59.8461 138.633 59.9373 138.69 60.041C138.747 60.1448 138.783 60.2589 138.795 60.3768V74.579C138.795 75.1499 138.439 75.364 137.655 75.364C135.07 75.2792 132.485 75.519 129.96 76.0777C127.902 76.5033 125.895 77.1493 123.975 78.0046C122.597 78.6272 121.36 79.5258 120.341 80.6452V117.043C120.341 117.756 120.056 118.042 119.415 118.042H105.379C105.247 118.064 105.113 118.059 104.983 118.028C104.854 117.996 104.732 117.939 104.625 117.859C104.519 117.778 104.43 117.677 104.363 117.562C104.297 117.446 104.254 117.318 104.239 117.185V77.3623C104.239 75.6495 104.239 73.8653 104.168 72.0097C104.096 70.1542 104.096 68.2986 104.025 66.4431C104.025 64.8016 103.883 63.2315 103.74 61.5901C103.721 61.5057 103.719 61.4184 103.734 61.3333C103.749 61.2481 103.78 61.1667 103.827 61.0938C103.873 61.0208 103.933 60.9578 104.004 60.9082C104.075 60.8587 104.154 60.8236 104.239 60.805C104.239 60.7337 104.381 60.7337 104.453 60.805V60.805Z" fill="#9999FF"/>
</g>
<defs>
<clipPath id="clip0_101_632">
<rect width="171" height="167" fill="white"/>
</clipPath>
</defs>
</svg>
